<?xml version="1.0"?>
<svg xmlns="http://www.w3.org/2000/svg" xmlns:xlink="http://www.w3.org/1999/xlink" version="1.1" id="Capa_1" x="0px" y="0px" viewBox="0 0 512.002 512.002" style="enable-background:new 0 0 512.002 512.002;" xml:space="preserve" width="512px" height="512px" class=""><g><g>
	<g>
		<g>
			<path d="M283.174,124.773v-14.412c0-7.03-5.719-12.749-12.75-12.749h-28.849c-7.03,0-12.749,5.719-12.749,12.749v14.412     c0,14.984,12.19,27.174,27.174,27.174C270.984,151.946,283.174,139.756,283.174,124.773z M243.826,124.773v-12.162h24.348v12.162     c0,6.713-5.461,12.174-12.174,12.174C249.287,136.946,243.826,131.485,243.826,124.773z" data-original="#000000" class="active-path" data-old_color="#FBFBFB" fill="#FFFFFF"/>
			<path d="M195.162,115.867v-11.656c0-4.142-3.358-7.5-7.5-7.5c-4.142,0-7.5,3.358-7.5,7.5v11.656c0,4.142,3.358,7.5,7.5,7.5     C191.804,123.367,195.162,120.009,195.162,115.867z" data-original="#000000" class="active-path" data-old_color="#FBFBFB" fill="#FFFFFF"/>
			<path d="M331.838,115.867v-11.656c0-4.142-3.358-7.5-7.5-7.5c-4.142,0-7.5,3.358-7.5,7.5v11.656c0,4.142,3.358,7.5,7.5,7.5     C328.48,123.367,331.838,120.009,331.838,115.867z" data-original="#000000" class="active-path" data-old_color="#FBFBFB" fill="#FFFFFF"/>
			<path d="M490.71,121.986h-35.52c-5.07,0-9.727,1.788-13.388,4.758l-8.414-26.476c-1.254-3.948-5.471-6.129-9.419-4.876     c-3.948,1.255-6.131,5.472-4.877,9.419l15.137,47.631c0.007,0.021,0.013,0.042,0.02,0.063l9.878,31.08     c5.476,17.23,8.365,35.104,8.611,53.165c0,0.001,0,0.003,0,0.005c0,0.003,0,0.005,0,0.007c0.011,0.835,0.024,1.671,0.024,2.507     v44.705h-64.309c-15.137,0-28.248,10.263-31.883,24.957l-8.957,36.211H324.02v-39.829c0-11.767-9.573-21.34-21.339-21.34h-27.963     c9.458-6.148,15.731-16.8,15.731-28.897c0-18.995-15.453-34.448-34.448-34.448s-34.448,15.453-34.448,34.448     c0,12.097,6.273,22.749,15.731,28.897H209.32c-11.767,0-21.339,9.573-21.339,21.34v39.829h-23.595l-8.957-36.211     c-3.635-14.694-16.746-24.957-31.883-24.957H59.237v-44.705c0-0.836,0.013-1.672,0.024-2.508c0-0.003,0-0.005,0-0.007     c0-0.002,0-0.003,0-0.005c0.246-18.062,3.136-35.935,8.611-53.164l9.878-31.081c0.007-0.021,0.013-0.042,0.02-0.063     l26.007-81.833c7.21-22.687,28.047-37.929,51.852-37.929h200.742c23.805,0,44.642,15.242,51.852,37.929     c1.255,3.948,5.471,6.13,9.419,4.876c3.948-1.255,6.131-5.472,4.876-9.419c-9.197-28.941-35.78-48.386-66.147-48.386H155.629     c-30.368,0-56.95,19.445-66.148,48.386l-19.283,60.678c-3.661-2.97-8.318-4.758-13.388-4.758H21.291     C9.551,121.986,0,131.537,0,143.276v79.687c0,11.74,9.551,21.291,21.291,21.291h22.947v100.888H42.87     c-12.996,0-23.569,10.573-23.569,23.568v44.126c0,12.996,10.573,23.568,23.569,23.568h20.231v35.171     c0,12.543,10.205,22.748,22.748,22.748h57.417c12.544,0,22.749-10.205,22.749-22.748v-35.171h27.402v7.124     c0,9.771,7.95,17.72,17.721,17.72h89.727c9.771,0,17.721-7.949,17.721-17.72v-7.124h27.402v35.171     c0,12.543,10.205,22.748,22.749,22.748h57.417c12.543,0,22.748-10.205,22.748-22.748v-35.171h20.23     c12.996,0,23.568-10.573,23.568-23.568V368.71c0-12.996-10.573-23.568-23.568-23.568h-1.367V244.254h22.946     c11.74,0,21.291-9.551,21.291-21.291v-79.686C512,131.537,502.449,121.986,490.71,121.986z M434.658,298.974h18.105v46.168     h-18.105V298.974z M371.133,312.533c1.975-7.984,9.098-13.559,17.321-13.559h31.204v46.168h-56.591L371.133,312.533z      M236.552,255.077c0-10.724,8.724-19.448,19.448-19.448s19.448,8.724,19.448,19.448s-8.724,19.448-19.448,19.448     S236.552,265.801,236.552,255.077z M202.98,305.313c0-3.496,2.844-6.34,6.339-6.34h93.36c3.496,0,6.339,2.844,6.339,6.34V316.5     H202.98V305.313z M202.98,331.501h106.04v13.642H202.98V331.501z M77.342,298.974v46.168H59.237v-46.168H77.342z M21.291,229.253     v0.001c-3.469,0-6.291-2.822-6.291-6.291v-79.687c0-3.469,2.822-6.29,6.291-6.29H56.81c3.469,0,6.291,2.822,6.291,6.29v5.8     l-9.523,29.965c-5.185,16.313-8.223,33.161-9.08,50.212H21.291z M151.015,471.576L151.015,471.576     c-0.001,4.272-3.477,7.748-7.75,7.748H85.849c-4.272,0-7.748-3.476-7.748-7.748v-35.171h72.914V471.576z M303.584,443.528     c0,1.5-1.221,2.72-2.721,2.72h-89.727c-1.5,0-2.721-1.22-2.721-2.72v-39.299c0-1.5,1.221-2.721,2.721-2.721h89.727     c1.5,0,2.721,1.221,2.721,2.721V443.528z M433.899,471.576L433.899,471.576c0,4.272-3.476,7.748-7.748,7.748h-57.417     c-4.272,0-7.749-3.476-7.749-7.748v-35.171h72.914V471.576z M469.13,360.142c4.725,0,8.568,3.844,8.568,8.568v44.126     c0,4.725-3.844,8.568-8.568,8.568H318.584v-17.175c0-9.771-7.95-17.721-17.721-17.721h-89.727     c-9.771,0-17.721,7.95-17.721,17.721v17.175H42.87c-4.725,0-8.569-3.844-8.569-8.568V368.71c0-4.725,3.844-8.568,8.569-8.568     h55.361c4.142,0,7.5-3.358,7.5-7.5c0-4.142-3.358-7.5-7.5-7.5h-5.889v-46.168h31.204c8.224,0,15.347,5.576,17.321,13.559     l8.066,32.609h-11.52c-4.142,0-7.5,3.358-7.5,7.5c0,4.142,3.358,7.5,7.5,7.5h21.073c0.008,0,0.015,0.002,0.023,0.002     c0.011,0,0.021-0.002,0.032-0.002H353.46c0.011,0,0.022,0.002,0.032,0.002c0.008,0,0.015-0.002,0.023-0.002H469.13z      M490.709,229.254h-23.207c-0.857-17.05-3.895-33.898-9.08-50.212l-9.523-29.966v-5.799c0-3.469,2.822-6.291,6.291-6.291h35.519     c3.469,0,6.29,2.822,6.29,6.291v79.686H497C497,226.432,494.178,229.254,490.709,229.254z" data-original="#000000" class="active-path" data-old_color="#FBFBFB" fill="#FFFFFF"/>
			<path d="M109.774,155.112c1.223-3.957-0.994-8.157-4.952-9.379c-3.957-1.224-8.157,0.994-9.379,4.952l-9.348,30.253     c-2.057,6.659-0.864,13.695,3.273,19.304c4.137,5.608,10.507,8.825,17.477,8.825h45.778c0.003,0,0.006,0.001,0.008,0.001     c0.002,0,0.005-0.001,0.007-0.001h153.36c0.003,0,0.005,0.001,0.008,0.001c0.002,0,0.005-0.001,0.007-0.001h99.142     c6.97,0,13.34-3.217,17.477-8.825c4.138-5.609,5.331-12.645,3.273-19.304L391.192,68.592     c-3.454-11.177-13.633-18.686-25.331-18.686H146.139c-11.698,0-21.878,7.509-25.331,18.686l-15.135,48.985     c-1.223,3.958,0.994,8.157,4.952,9.379c3.957,1.224,8.157-0.994,9.379-4.952l15.136-48.985c1.499-4.853,5.919-8.114,10.999-8.114     h219.723c5.08,0,9.5,3.261,10.999,8.114l34.712,112.345c0.637,2.06,0.268,4.236-1.012,5.971c-1.28,1.735-3.251,2.73-5.406,2.73     h-74.971l33.436-22.945c3.416-2.344,4.284-7.013,1.94-10.428c-2.345-3.415-7.012-4.284-10.428-1.94l-51.458,35.313H176.809     l33.436-22.945c3.416-2.344,4.284-7.013,1.941-10.428c-2.344-3.415-7.013-4.284-10.428-1.94L150.3,194.065h-43.453     c-2.156,0-4.127-0.995-5.406-2.73c-1.28-1.735-1.649-3.912-1.013-5.971L109.774,155.112z" data-original="#000000" class="active-path" data-old_color="#FBFBFB" fill="#FFFFFF"/>
			<path d="M281.381,416.379h-50.763c-4.142,0-7.5,3.358-7.5,7.5c0,4.142,3.358,7.5,7.5,7.5h50.763c4.142,0,7.5-3.358,7.5-7.5     C288.881,419.737,285.523,416.379,281.381,416.379z" data-original="#000000" class="active-path" data-old_color="#FBFBFB" fill="#FFFFFF"/>
		</g>
	</g>
</g></g> </svg>
