<?xml version="1.0" encoding="iso-8859-1"?>
<!-- Generator: Adobe Illustrator 19.0.0, SVG Export Plug-In . SVG Version: 6.00 Build 0)  -->
<svg xmlns="http://www.w3.org/2000/svg" xmlns:xlink="http://www.w3.org/1999/xlink" version="1.1" id="Layer_1" x="0px" y="0px" viewBox="0 0 512.001 512.001" style="enable-background:new 0 0 512.001 512.001;" xml:space="preserve" width="512px" height="512px">
<g>
	<g>
		<path d="M380.866,185.433h-75.233c-4.329,0-7.837,3.509-7.837,7.837v58.166c0,4.328,3.508,7.837,7.837,7.837h75.233    c4.329,0,7.837-3.509,7.837-7.837V193.27C388.703,188.942,385.195,185.433,380.866,185.433z M373.03,243.6H313.47v-42.493h59.559    V243.6z" fill="#FFFFFF"/>
	</g>
</g>
<g>
	<g>
		<path d="M272.197,185.433h-75.233c-4.328,0-7.837,3.509-7.837,7.837v58.166c0,4.328,3.509,7.837,7.837,7.837h75.233    c4.329,0,7.837-3.509,7.837-7.837V193.27C280.034,188.942,276.526,185.433,272.197,185.433z M264.36,243.6h-59.559v-42.493h59.559    V243.6z" fill="#FFFFFF"/>
	</g>
</g>
<g>
	<g>
		<path d="M163.528,185.433H88.295c-4.328,0-7.837,3.509-7.837,7.837v58.166c0,4.328,3.509,7.837,7.837,7.837h75.233    c4.328,0,7.837-3.509,7.837-7.837V193.27C171.364,188.942,167.856,185.433,163.528,185.433z M155.691,243.6H96.132v-42.493h59.559    V243.6z" fill="#FFFFFF"/>
	</g>
</g>
<g>
	<g>
		<path d="M497.556,369.435v-92.572c0-1.181-0.266-2.346-0.781-3.409l-41.87-86.668c-6.101-15.825-21.529-26.429-38.512-26.429    h-69.487v-9.404h50.678c4.329,0,7.837-3.509,7.837-7.837c0-4.328-3.508-7.837-7.837-7.837H71.577    c-4.328,0-7.837,3.509-7.837,7.837c0,4.328,3.509,7.837,7.837,7.837h59.037v8.882c0,0.177,0.015,0.349,0.026,0.522H71.837    c-18.972,0-35.297,12.969-39.946,30.922c-0.003,0.013-0.009,0.024-0.013,0.037c-0.01,0.043-0.024,0.094-0.049,0.21    c-0.397,1.574-13.961,84.065-13.961,84.065c-0.069,0.42-0.104,0.846-0.104,1.272v92.474h-1.567C7.265,369.336,0,376.601,0,385.531    v16.718c0,8.931,7.265,16.196,16.196,16.196h49.862c7.028,24.117,29.318,41.796,55.673,41.796    c29.318,0,53.609-21.873,57.447-50.155h26.145c4.328,0,7.837-3.509,7.837-7.837c0-4.328-3.509-7.837-7.837-7.837h-26.144    c-3.84-28.282-28.13-50.155-57.447-50.155c-19.76,0-37.235,9.941-47.709,25.078H33.438v-84.637H339.07    c4.329,0,7.837-3.509,7.837-7.837c0-4.328-3.508-7.837-7.837-7.837H34.832l1.546-9.404h22.66c4.328,0,7.837-3.509,7.837-7.837    V193.27c0-4.328-3.509-7.837-7.837-7.837h-6.993c4.727-5.762,11.885-9.404,19.792-9.404h344.556    c7.769,0,15.003,3.588,19.788,9.404h-13.335c-4.329,0-7.837,3.509-7.837,7.837v58.514c0,4.328,3.508,7.837,7.837,7.837h49.841    l4.543,9.404H372.507c-4.329,0-7.837,3.509-7.837,7.837c0,4.328,3.508,7.837,7.837,7.837h108.669c0.238,0,0.473-0.015,0.706-0.036    v84.672h-36.589c-10.475-15.136-27.949-25.078-47.709-25.078c-29.318,0-53.608,21.873-57.447,50.155H238.76    c-4.328,0-7.837,3.509-7.837,7.837c0,4.328,3.509,7.837,7.837,7.837h101.377c3.84,28.282,28.13,50.155,57.447,50.155    c26.355,0,48.645-17.679,55.673-41.796h42.547c8.931,0,16.196-7.265,16.196-16.196v-16.718    C512.001,377.193,505.666,370.31,497.556,369.435z M121.732,359.931c23.335,0,42.318,18.984,42.318,42.318    s-18.984,42.318-42.318,42.318c-23.335,0-42.318-18.984-42.318-42.318S98.397,359.931,121.732,359.931z M66.356,385.009    c-1.7,5.449-2.616,11.24-2.616,17.241c0,0.176,0.012,0.348,0.014,0.522H16.197c-0.288,0-0.522-0.234-0.522-0.522v-16.718    c0-0.288,0.234-0.522,0.522-0.522H66.356z M51.201,243.948H38.957l0.402-2.448c2.463-14.956,5.214-31.581,6.698-40.393h5.144    V243.948z M146.261,160.356c0.011-0.173,0.026-0.346,0.026-0.522v-8.882h84.637v8.882c0,0.177,0.015,0.349,0.026,0.522H146.261z     M331.234,160.356h-84.663c0.011-0.173,0.026-0.346,0.026-0.522v-8.882h84.637V160.356z M430.683,243.948v-42.841h13.734    l20.698,42.841H430.683z M397.585,444.568c-23.335,0-42.318-18.984-42.318-42.318s18.984-42.318,42.318-42.318    s42.318,18.984,42.318,42.318S420.919,444.568,397.585,444.568z M496.328,402.25c0,0.288-0.235,0.522-0.522,0.522h-40.242    c0.001-0.174,0.014-0.347,0.014-0.522c0-6.001-0.916-11.793-2.616-17.241h42.845c0.287,0,0.522,0.234,0.522,0.522V402.25z" fill="#FFFFFF"/>
	</g>
</g>
<g>
	<g>
		<path d="M397.585,369.335c-18.149,0-32.914,14.766-32.914,32.914s14.766,32.914,32.914,32.914s32.914-14.765,32.914-32.914    S415.734,369.335,397.585,369.335z M397.585,419.491c-9.506,0-17.241-7.734-17.241-17.241s7.734-17.241,17.241-17.241    s17.241,7.734,17.241,17.241S407.091,419.491,397.585,419.491z" fill="#FFFFFF"/>
	</g>
</g>
<g>
	<g>
		<path d="M121.732,369.335c-18.149,0-32.914,14.766-32.914,32.914s14.765,32.914,32.914,32.914    c18.149,0,32.914-14.765,32.914-32.914S139.88,369.335,121.732,369.335z M121.732,419.491c-9.507,0-17.241-7.734-17.241-17.241    s7.734-17.241,17.241-17.241c9.506,0,17.241,7.734,17.241,17.241S131.238,419.491,121.732,419.491z" fill="#FFFFFF"/>
	</g>
</g>
<g>
	<g>
		<path d="M357.723,110.443c-47.13-12.003-95.629-17.709-144.16-16.96c-17.371,0.268-34.736,1.38-52.016,3.298    c-0.086-0.119-0.165-0.241-0.258-0.357l-33.437-41.796c-4.518-5.674-13.957-2.35-13.957,4.895v44.669    c-9.227,1.853-18.412,3.927-27.535,6.252c-4.194,1.068-6.728,5.334-5.659,9.528c1.069,4.194,5.337,6.732,9.529,5.659    c40.39-10.291,81.967-15.834,123.574-16.477c47.143-0.726,94.263,4.816,140.052,16.477c4.253,1.084,8.676-1.667,9.596-5.953    C364.325,115.615,361.749,111.468,357.723,110.443z M129.568,101.282V81.864l13.791,17.238    C138.753,99.769,134.157,100.498,129.568,101.282z" fill="#FFFFFF"/>
	</g>
</g>
<g>
</g>
<g>
</g>
<g>
</g>
<g>
</g>
<g>
</g>
<g>
</g>
<g>
</g>
<g>
</g>
<g>
</g>
<g>
</g>
<g>
</g>
<g>
</g>
<g>
</g>
<g>
</g>
<g>
</g>
</svg>
