<?xml version="1.0" encoding="iso-8859-1"?>
<!-- Generator: Adobe Illustrator 19.0.0, SVG Export Plug-In . SVG Version: 6.00 Build 0)  -->
<svg xmlns="http://www.w3.org/2000/svg" xmlns:xlink="http://www.w3.org/1999/xlink" version="1.1" id="Capa_1" x="0px" y="0px" viewBox="0 0 512 512" style="enable-background:new 0 0 512 512;" xml:space="preserve" width="512px" height="512px">
<g>
	<g>
		<path d="M289.75,283.133h-4.185c-4.142,0-7.5,3.357-7.5,7.5s3.358,7.5,7.5,7.5h4.185c4.142,0,7.5-3.357,7.5-7.5    S293.892,283.133,289.75,283.133z" fill="#FFFFFF"/>
	</g>
</g>
<g>
	<g>
		<path d="M134.392,283.133h-4.186c-4.142,0-7.5,3.357-7.5,7.5s3.357,7.5,7.5,7.5h4.186c4.142,0,7.5-3.357,7.5-7.5    S138.534,283.133,134.392,283.133z" fill="#FFFFFF"/>
	</g>
</g>
<g>
	<g>
		<path d="M500.31,336.5h-1.81V332c0-4.143-3.358-7.5-7.5-7.5c-4.142,0-7.5,3.357-7.5,7.5v4.5h-38.954    c-8.883-8.073-20.675-13-33.596-13s-24.713,4.927-33.596,13h-38.441v-61.159h123.261c4.142,0,7.5-3.357,7.5-7.5v-51.757    c0-4.143-3.358-7.5-7.5-7.5H338.912V193.58H483.5V303.5c0,4.143,3.358,7.5,7.5,7.5c4.142,0,7.5-3.357,7.5-7.5V186.08    c0-0.013-0.002-0.027-0.002-0.04s0.002-0.027,0.002-0.04v-60c0-4.143-3.358-7.5-7.5-7.5h-30.051V96c0-4.143-3.358-7.5-7.5-7.5    h-100c-4.142,0-7.5,3.357-7.5,7.5v22.5H268c-4.142,0-7.5,3.357-7.5,7.5s3.358,7.5,7.5,7.5h215.5v45H44.206    c-2.472,0-3.619-1.701-3.997-2.433s-1.104-2.651,0.325-4.669l20.12-28.403c4.211-5.945,11.076-9.495,18.361-9.495H235.5    c4.142,0,7.5-3.357,7.5-7.5s-3.358-7.5-7.5-7.5h-4.786V96c0-4.143-3.358-7.5-7.5-7.5h-100c-4.142,0-7.5,3.357-7.5,7.5v22.5h-36.7    c-12.142,0-23.582,5.915-30.601,15.824l-20.12,28.404c-4.232,5.975-4.771,13.726-1.408,20.229    c3.363,6.503,10,10.543,17.321,10.543h30.126l-1.32,5.142c-1.03,4.013,1.388,8.1,5.4,9.13c0.625,0.16,1.252,0.237,1.87,0.237    c3.342,0,6.39-2.251,7.259-5.637l2.278-8.872h70.892v66.84H72.659l7.313-28.485c1.03-4.013-1.388-8.1-5.4-9.13    c-4.009-1.027-8.099,1.388-9.129,5.399l-8.26,32.176H31c-9.649,0-17.5,7.851-17.5,17.5v0.04v58.66h-1.81    C5.135,336.5,0,342.188,0,349.45v19.1c0,7.262,5.135,12.95,11.69,12.95h26.505c3.841,23.78,24.505,42,49.352,42    s45.511-18.22,49.352-42h224.698c3.841,23.78,24.505,42,49.352,42s45.511-18.22,49.352-42h40.009c6.555,0,11.69-5.688,11.69-12.95    v-19.1C512,342.188,506.865,336.5,500.31,336.5z M445.949,118.5h-85v-15h85V118.5z M130.714,103.5h85v15h-85V103.5z     M338.912,223.584h115.761v36.757H338.912V223.584z M265.433,193.584h58.479V336.5h-58.479V193.584z M175.71,193.58h74.723v15.004    h0h-52.218c-4.142,0-7.5,3.357-7.5,7.5v51.757c0,4.143,3.358,7.5,7.5,7.5h52.218V336.5H175.71V193.58z M250.433,223.584v36.757    h-44.718v-36.757H250.433z M28.5,300.063h15v15h-15V300.063z M38.048,366.5H15v-15h27.661    C40.376,356.143,38.795,361.188,38.048,366.5z M87.547,408.5c-19.299,0-35-15.701-35-35s15.701-35,35-35s35,15.701,35,35    S106.846,408.5,87.547,408.5z M121.144,336.499c-8.883-8.073-20.675-13-33.596-13c-12.921,0-24.713,4.927-33.596,13H28.5v-6.436    h17.9c6.672,0,12.1-5.354,12.1-11.936v-21.13c0-6.581-5.428-11.935-12.1-11.935H28.5v-7.223c0-1.379,1.122-2.5,2.5-2.5h129.71    v61.16H121.144z M361.449,366.5H137.047c-0.748-5.312-2.329-10.357-4.613-15h233.629    C363.778,356.143,362.197,361.188,361.449,366.5z M410.949,408.5c-19.299,0-35-15.701-35-35s15.701-35,35-35s35,15.701,35,35    S430.248,408.5,410.949,408.5z M497,366.5h-36.551c-0.748-5.312-2.329-10.357-4.613-15H497V366.5z" fill="#FFFFFF"/>
	</g>
</g>
<g>
	<g>
		<path d="M87.92,351c-12.407,0-22.5,10.094-22.5,22.5S75.514,396,87.92,396s22.5-10.094,22.5-22.5S100.327,351,87.92,351z     M87.92,381c-4.136,0-7.5-3.364-7.5-7.5s3.364-7.5,7.5-7.5c4.136,0,7.5,3.364,7.5,7.5S92.056,381,87.92,381z" fill="#FFFFFF"/>
	</g>
</g>
<g>
	<g>
		<path d="M411.322,351c-12.407,0-22.5,10.094-22.5,22.5s10.093,22.5,22.5,22.5c12.407,0,22.5-10.094,22.5-22.5    S423.729,351,411.322,351z M411.322,381c-4.136,0-7.5-3.364-7.5-7.5s3.364-7.5,7.5-7.5s7.5,3.364,7.5,7.5S415.458,381,411.322,381    z" fill="#FFFFFF"/>
	</g>
</g>
<g>
</g>
<g>
</g>
<g>
</g>
<g>
</g>
<g>
</g>
<g>
</g>
<g>
</g>
<g>
</g>
<g>
</g>
<g>
</g>
<g>
</g>
<g>
</g>
<g>
</g>
<g>
</g>
<g>
</g>
</svg>
